<svg width="18.000000" height="17.996826" viewBox="0 0 18 17.9968" fill="none" xmlns="http://www.w3.org/2000/svg" xmlns:xlink="http://www.w3.org/1999/xlink">
	<desc>
			Created with Pixso.
	</desc>
	<defs/>
	<path id="Vector" d="M12.86 15.18L7.41 15.18C5.09 15.18 3.19 13.29 3.19 10.96L3.19 6.64C3.19 4.48 2.12 2.48 0.31 1.29C-0.01 1.07 -0.1 0.64 0.11 0.31C0.33 -0.01 0.76 -0.1 1.08 0.11C2.12 0.79 2.95 1.69 3.55 2.72C3.68 2.86 4.72 3.97 6.43 3.97L14.52 3.97C16.73 3.93 18.46 6.14 17.88 8.27L16.95 11.99C16.48 13.87 14.8 15.18 12.86 15.18ZM4.42 4.98C4.54 5.52 4.6 6.07 4.6 6.64L4.6 10.96C4.6 12.51 5.86 13.77 7.41 13.77L12.86 13.77C14.15 13.77 15.27 12.9 15.59 11.65L16.52 7.93C16.86 6.67 15.83 5.35 14.52 5.37L6.43 5.37C5.66 5.37 4.98 5.21 4.42 4.98ZM7.06 17.11C7.06 16.63 6.67 16.23 6.18 16.23C5.02 16.28 5.02 17.95 6.18 17.99C6.67 17.99 7.06 17.6 7.06 17.11ZM14.06 17.11C14.06 16.63 13.66 16.23 13.18 16.23C12.01 16.28 12.01 17.95 13.18 17.99C13.66 17.99 14.06 17.6 14.06 17.11ZM15.23 7.48C15.23 7.09 14.91 6.78 14.52 6.78L6.71 6.78C5.78 6.82 5.78 8.15 6.71 8.18L14.52 8.18C14.91 8.18 15.23 7.87 15.23 7.48Z" fill="#727272" fill-opacity="1.000000" fill-rule="nonzero"/>
</svg>

