<svg width="61" height="46" viewBox="0 0 61 46" fill="none" xmlns="http://www.w3.org/2000/svg">
<g clip-path="url(#clip0_11_1429)">
<path d="M19.2993 44.7375C19.8585 40.1055 16.6254 36.647 13.1804 33.9798C11.1738 32.424 9.21233 31.126 7.90468 28.8989C7.23732 27.7564 6.59702 26.4673 6.22276 25.2004C5.49227 22.7332 6.75484 18.8569 9.87969 21.7019C11.6788 23.3422 12.0937 25.4582 13.469 27.2808C14.2446 28.3121 15.435 28.8633 16.675 28.2054C20.4041 26.2317 17.5182 19.3859 16.684 16.6654C15.674 13.3714 15.1419 10.2019 16.8418 7.03241C17.401 5.99221 18.0278 4.92089 18.7447 3.98293C19.2092 3.37837 19.7999 2.72491 20.4627 2.30705C21.8335 1.43577 22.6587 1.43577 24.1737 1.89809C25.788 2.39151 25.8016 2.47598 26.1307 4.00516C26.284 4.71196 26.3472 5.48989 26.3832 6.21892C26.4599 7.76144 26.3336 9.3173 26.0135 10.8331C25.4138 13.7093 23.6868 16.252 23.308 19.1725C23.0284 21.3196 23.2223 28.1432 26.8116 27.503C31.0187 26.7518 30.7165 20.0927 34.9101 19.2037C38.4002 18.4613 40.1046 22.2442 38.6256 24.8403C37.823 26.2539 36.4883 27.3474 35.2032 28.3121C32.9125 30.0324 30.1123 30.9304 27.8622 32.6685C23.7905 35.8246 25.1432 40.7856 26.8161 44.8531C27.1408 45.6399 28.4484 45.2931 28.1193 44.4974C26.992 41.7547 25.5761 38.3985 27.1002 35.5179C28.5116 32.8507 32.2361 31.9172 34.6395 30.3436C37.8861 28.2187 42.5441 24.218 39.7935 20.0082C37.4938 16.4831 33.0388 17.6611 30.9375 20.6128C30.3017 21.5063 29.8102 22.4887 29.2466 23.4267C28.9895 23.8534 28.7325 24.2846 28.4304 24.6847C28.214 24.9425 27.9975 25.1959 27.7811 25.4537C26.0721 25.8272 25.1883 25.3782 25.1297 24.0979C23.4162 20.5061 25.4904 16.8254 26.6538 13.5137C27.5195 11.051 27.8893 8.42824 27.7044 5.82773C27.5782 4.02739 27.3888 1.59136 25.6708 0.515596C24.1602 -0.431253 21.838 0.111074 20.3545 0.848994C18.145 1.95143 16.7922 4.28966 15.674 6.37006C12.8016 11.7133 15.701 16.4209 16.7697 21.8042C16.9095 22.5198 17.2657 24.089 17.0267 24.8847C16.2962 25.5427 15.5657 26.1961 14.8308 26.854C14.4114 26.325 14.0958 25.7471 13.8748 25.1115C13.451 24.1824 13.0045 23.3156 12.3868 22.4887C11.4128 21.1818 9.57307 19.0347 7.69275 19.1414C5.86653 19.2481 4.79335 21.1507 4.59946 22.7377C4.31087 25.0848 5.58696 27.5875 6.74131 29.579C9.94282 35.0956 18.8665 37.1271 17.9466 44.7464C17.8474 45.5865 19.2001 45.5821 19.2993 44.7375Z" fill="#46A358"/>
<path d="M30.9871 22.5732C31.9611 17.7056 30.1214 13.2558 29.7381 8.45043C29.5081 5.57877 30.7481 0.986771 34.6891 2.29369C37.6246 3.26721 38.7384 6.71677 38.54 9.4773C38.3957 11.4955 37.4127 17.4166 41.3537 16.8654C44.7356 16.3942 46.4806 10.8376 48.122 8.48155C49.5288 6.46338 52.6356 3.51615 55.3682 4.33853C59.697 5.641 56.9238 10.762 54.9308 12.7757C51.5715 16.1675 47.9912 19.1681 45.0287 22.9466C43.3107 25.1381 41.8226 28.7388 45.6329 29.7212C47.0984 30.0991 48.5097 29.5967 49.8309 29.0011C50.8951 28.521 51.9096 27.9475 53.0415 27.6319C55.1066 27.054 57.501 27.5074 56.1347 30.0368C52.9377 35.9624 45.6194 31.5927 40.8983 34.0776C36.8941 36.1891 35.9607 40.8567 36.3395 44.9508C36.4162 45.7999 37.7734 45.8088 37.6923 44.9508C37.4262 42.0969 37.6562 39.0119 39.6582 36.7492C42.2465 33.8242 45.7005 34.8911 49.1275 34.8244C52.6266 34.7577 57.1313 33.0863 57.8572 29.2322C58.6509 25.0092 53.7719 25.8271 51.2693 26.8451C50.1646 27.2941 49.132 27.992 47.9777 28.3209C47.0623 28.5832 45.6149 28.7255 44.8934 27.8764C44.1945 27.0496 44.7581 25.6582 45.191 24.9558C46.7737 22.3776 49.1996 20.026 51.355 17.9056C54.3266 14.9806 59.3949 11.8778 58.9575 7.10795C58.6238 3.45836 55.2059 2.12032 52.0539 3.48948C50.1601 4.31186 48.5954 5.61878 47.3599 7.2502C45.7456 9.3795 44.8844 12.3045 42.959 14.1804C42.2645 14.8561 41.5837 16.2919 40.0325 14.8828C39.3426 14.256 39.55 12.5846 39.6222 11.7266C39.7169 10.602 39.9604 9.50397 39.9243 8.37042C39.8657 6.45449 39.2209 4.5119 37.9628 3.02716C35.3024 -0.102328 30.7346 0.0354759 28.967 3.96068C27.9119 6.3078 28.3763 8.99276 28.8182 11.4288C29.4675 15.025 30.419 18.5546 29.684 22.2175C29.5171 23.0577 30.8203 23.4178 30.9871 22.5732Z" fill="#46A358"/>
<path d="M30.6848 31.0059C30.049 35.589 29.0074 40.0788 27.5554 44.4796C27.2849 45.2976 28.5925 45.6488 28.8586 44.8353C30.3105 40.4344 31.3522 35.9447 31.988 31.3615C32.1052 30.5169 30.802 30.1569 30.6848 31.0059Z" fill="#46A358"/>
<path d="M14.506 43.9729C14.3302 40.4433 11.8456 38.0606 8.98679 36.247C7.13352 35.069 5.1044 34.0865 3.51266 32.5529C2.82727 31.895 1.55118 30.6192 1.48354 29.5968C1.25357 26.1872 5.47866 28.8411 6.41657 29.6279C7.0749 30.1836 8.03536 29.2412 7.37251 28.6855C5.89801 27.4453 3.25113 25.8316 1.22652 26.7651C-0.405802 27.5164 -0.135252 29.379 0.491522 30.7215C3.12938 36.4248 12.8061 37.0782 13.1533 43.9729C13.1938 44.8264 14.5511 44.8308 14.506 43.9729Z" fill="#46A358"/>
<path d="M44.8391 45.2931C46.5255 42.786 48.7485 40.7367 51.4721 39.3587C53.9521 38.1051 57.0273 37.8873 59.2233 36.1136C61.7439 34.0776 61.8747 29.0856 57.7037 29.2145C56.8335 29.2412 56.8335 30.5747 57.7037 30.5481C59.3496 30.7703 60.0169 31.6683 59.7148 33.2375C59.3766 34.1399 58.804 34.8511 57.9968 35.3668C57.0093 36.0558 55.8099 36.3714 54.6736 36.727C53.2261 37.1805 51.8148 37.6561 50.4755 38.3674C47.6889 39.8521 45.4117 42.0303 43.6667 44.6219C43.1842 45.3376 44.3566 46.0044 44.8391 45.2931Z" fill="#46A358"/>
<path d="M48.5141 33.5619C42.783 34.6288 40.6682 40.2521 39.3109 45.173C39.081 46.0043 40.3886 46.3555 40.6141 45.5287C41.8496 41.0523 43.6307 35.8246 48.8749 34.8511C49.7271 34.6866 49.3664 33.4019 48.5141 33.5619Z" fill="#46A358"/>
<path d="M18.2938 13.2647C17.6219 10.602 18.4606 7.68585 20.6341 5.89884C21.0714 5.52099 21.5675 5.23205 22.1131 5.03201C23.6146 5.34762 24.3135 6.13889 24.2098 7.4058C24.2369 8.14372 24.0926 8.87275 23.9167 9.584C23.5605 11.0198 22.9337 12.3845 22.4693 13.7893C21.2744 17.4077 19.5564 23.3244 22.7849 26.405C23.0961 26.7029 23.5785 26.2317 23.2629 25.9338C20.4311 23.2355 21.8831 18.0479 22.8526 14.8161C23.6913 12.0156 25.9684 8.29486 24.4308 5.35207C23.2313 3.05829 20.4807 4.92087 19.3129 6.26336C17.5859 8.25041 17.0042 10.922 17.64 13.4425C17.7482 13.8604 18.3975 13.6826 18.2938 13.2647Z" fill="#46A358"/>
<path d="M32.5877 24.0623C32.9755 23.2133 33.7601 22.0131 34.8107 21.8708C36.4114 21.653 37.2366 23.6356 36.3799 24.947C35.5727 26.1827 34.0351 27.0451 32.7094 27.5741C30.5044 28.4499 29.0254 29.659 27.4247 31.3882C27.1316 31.7038 27.6095 32.1795 27.9026 31.8594C28.8721 30.8059 29.8641 29.7123 31.1267 28.9833C32.1322 28.401 33.3001 28.1742 34.3102 27.6052C35.5412 26.9073 37.5342 25.4004 37.6785 23.8801C37.7958 22.6532 36.4836 21.2307 35.2571 21.1551C33.7781 21.0618 32.5426 22.5554 32.006 23.7289C31.8256 24.1112 32.4118 24.4535 32.5877 24.0623Z" fill="#46A358"/>
<path d="M7.30024 24.8359C7.44904 23.6668 7.89545 23.2356 8.63495 23.5512C8.89648 23.5557 9.11292 23.649 9.29329 23.8313C9.64951 24.0625 9.88399 24.4047 10.0959 24.7648C10.4747 25.4094 10.6505 26.1606 10.9301 26.8452C11.2863 27.7254 11.7553 28.4411 12.5624 28.9656C12.9277 29.2057 13.2659 28.6278 12.9051 28.3877C10.9211 27.0897 11.4757 23.7202 8.99568 22.9022C7.50766 22.4132 6.01062 23.6846 6.71856 25.1693C6.90343 25.5605 7.48511 25.2227 7.30024 24.8359Z" fill="#46A358"/>
<path d="M31.5325 7.58367C31.1808 5.66329 33.2325 4.13411 34.8017 5.53438C35.6674 6.30786 36.0011 7.73036 36.0056 8.84169C36.0146 10.3486 35.3157 11.6956 35.6133 13.207C35.6945 13.6293 36.3483 13.4515 36.2671 13.0292C35.8929 11.131 36.9661 9.31289 36.4836 7.34362C36.195 6.16561 35.6088 4.85425 34.3733 4.40972C32.1458 3.61401 30.5089 5.73887 30.8787 7.75703C30.9598 8.17934 31.6092 8.00152 31.5325 7.58367Z" fill="#46A358"/>
<path d="M31.1945 11.98C32.2947 14.2604 32.8358 16.2608 32.7547 18.7902C32.7411 19.2214 33.4175 19.2169 33.4311 18.7902C33.5167 16.1319 32.9305 14.0293 31.7807 11.6466C31.5913 11.2598 31.0096 11.5977 31.1945 11.98Z" fill="#46A358"/>
<path d="M48.7351 10.073C49.389 8.60165 50.6245 7.67258 52.0539 6.97467C52.4642 6.76129 52.8881 6.58793 53.33 6.45012C55.2373 7.09025 55.7198 7.97486 54.7774 9.11286C54.3265 9.81077 53.6727 10.4376 53.109 11.051C50.9627 13.3848 48.6449 15.5452 46.1965 17.5634C45.8628 17.839 46.3408 18.3102 46.6744 18.0346C48.8884 16.212 50.9942 14.2739 52.9602 12.1935C54.1416 10.9443 56.4097 9.09063 55.9137 7.11692C54.9262 3.20505 48.9786 7.86817 48.1489 9.73965C47.9776 10.1264 48.5638 10.4642 48.7351 10.073Z" fill="#46A358"/>
<path d="M44.9159 19.986C42.756 21.5507 41.4439 23.8312 41.1958 26.4583C41.1553 26.8851 41.8316 26.8806 41.8722 26.4583C42.0977 24.0845 43.3061 21.973 45.2586 20.5594C45.6058 20.3105 45.2676 19.7281 44.9159 19.986Z" fill="#46A358"/>
<path d="M49.195 31.1082C49.6369 30.8459 50.0788 30.5703 50.5433 30.3436C50.895 30.1525 51.2648 30.0058 51.6525 29.9035C52.3785 29.6057 52.622 30.1614 52.3785 31.5705C51.9006 32.4996 49.3123 32.5352 48.5097 32.4863C46.5031 32.3707 44.6137 31.8284 42.6342 32.4285C42.2194 32.5529 42.3952 33.1975 42.8146 33.073C45.1909 32.3485 47.5041 33.402 49.903 33.1397C51.2061 32.993 53.0504 32.4018 53.6997 31.1571C54.0604 30.4636 53.9748 29.5479 53.1857 29.1701C51.8915 28.5522 49.8714 29.9213 48.8524 30.5303C48.4826 30.757 48.8208 31.3349 49.195 31.1082Z" fill="#46A358"/>
<path d="M39.1395 33.5886C35.6224 36.4025 34.3417 40.67 33.9855 44.973C33.9495 45.3998 34.6258 45.3998 34.6619 44.973C35.0046 40.8345 36.2356 36.7626 39.6175 34.0598C39.9557 33.7887 39.4732 33.3219 39.1395 33.5886Z" fill="#46A358"/>
<path d="M24.0023 34.7222C22.9562 36.5092 22.9877 38.4563 23.2177 40.4567C23.4116 42.137 23.6325 43.7862 24.8094 45.0931C25.098 45.4132 25.576 44.942 25.2874 44.6219C24.1331 43.3417 23.9888 41.5635 23.8354 39.9277C23.6731 38.2251 23.6957 36.5759 24.5885 35.0556C24.8049 34.6867 24.2232 34.3533 24.0023 34.7222Z" fill="#46A358"/>
<path d="M5.34346 30.3303C3.38648 30.357 4.16206 32.3885 5.20818 33.1175C6.51584 34.0288 8.00387 34.6378 9.39269 35.4068C11.0295 36.3137 11.6879 37.8428 12.9459 39.1186C13.248 39.4254 13.726 38.9542 13.4239 38.6474C12.1748 37.3805 11.5706 35.8647 9.96084 34.9578C9.14919 34.5 8.29696 34.1132 7.4808 33.6732C7.05694 33.4464 6.63308 33.2197 6.22725 32.9663C6.06492 32.8686 5.89808 32.7663 5.73575 32.6685C4.92861 32.3662 4.80236 31.8106 5.34797 31.0015C5.77634 30.9926 5.77634 30.3258 5.34346 30.3303Z" fill="#46A358"/>
<path d="M56.2384 33.402C56.2609 34.2911 55.8461 34.7756 54.9848 34.8601C54.57 35.0245 54.1596 35.1846 53.7448 35.349C53.127 35.5935 52.5048 35.838 51.887 36.0825C50.4441 36.6515 48.9966 37.225 47.5537 37.794C47.1524 37.9495 47.3282 38.5986 47.7341 38.4385C49.3844 37.7851 51.0348 37.1361 52.6851 36.4826C53.9071 35.9981 55.4673 35.6513 56.554 34.8956C57.4964 34.2377 57.5235 32.873 56.2339 32.7352C55.8055 32.6863 55.81 33.3576 56.2384 33.402Z" fill="#46A358"/>
<path d="M46.0026 38.7185C44.19 40.4077 42.7606 42.3903 41.7505 44.6396C41.5746 45.0264 42.1563 45.3686 42.3367 44.9775C43.3242 42.7815 44.7085 40.8433 46.4851 39.1941C46.7963 38.8963 46.3183 38.4251 46.0026 38.7185Z" fill="#46A358"/>
<path d="M14.5512 41.6347C15.0698 42.3904 15.4034 43.2038 15.5613 44.1018C15.6334 44.5241 16.2872 44.3463 16.2151 43.924C16.0482 42.9771 15.683 42.0925 15.1374 41.2968C14.8939 40.9456 14.3077 41.279 14.5512 41.6347Z" fill="#46A358"/>
</g>
<defs>
<clipPath id="clip0_11_1429">
<rect width="61" height="46" fill="white"/>
</clipPath>
</defs>
</svg>
