<svg width="55" height="48" viewBox="0 0 55 48" fill="none" xmlns="http://www.w3.org/2000/svg">
<path d="M9.12947 1.35694C21.7024 3.02051 34.392 3.28199 47.0232 2.13688C47.8797 2.06024 47.8886 0.707744 47.0232 0.784385C34.392 1.9295 21.7024 1.66801 9.12947 0.0044472C8.27752 -0.108261 8.282 1.24874 9.12947 1.35694Z" fill="#727272"/>
<path d="M12.0304 47.0306C17.4649 47.7249 22.9353 48.063 28.4147 47.9864C33.2349 47.9188 38.925 48.1306 43.4448 46.2236C44.2295 45.89 43.8843 44.5826 43.0861 44.9207C38.4497 46.8773 32.5085 46.6113 27.5493 46.6429C22.3569 46.679 17.1779 46.3363 12.0259 45.6781C11.1739 45.5699 11.1784 46.9224 12.0304 47.0306Z" fill="#727272"/>
<path d="M8.60473 0.3155C2.3317 6.16729 -0.59183 14.8909 0.0986962 23.3981C0.452927 27.7937 1.69049 32.0675 3.55133 36.0529C5.24626 39.6866 7.74381 44.8937 11.4924 46.7827C12.2636 47.1704 12.9452 46.0072 12.1695 45.615C8.68096 43.8568 6.30895 38.7939 4.71267 35.3721C2.85632 31.3823 1.64117 27.0498 1.39007 22.6452C0.941677 14.706 3.71275 6.72181 9.55981 1.27126C10.1965 0.680673 9.24145 -0.275089 8.60473 0.3155Z" fill="#727272"/>
<path d="M46.5478 1.95197C53.1661 6.12216 53.7893 15.1162 53.6279 22.1988C53.4486 30.0974 52.4755 42.6124 43.0862 44.9207C42.2477 45.1281 42.6019 46.431 43.4449 46.2236C53.2468 43.8162 54.6547 31.3958 54.9507 23.0373C55.2242 15.2154 54.5337 5.3873 47.2248 0.784317C46.4895 0.324469 45.8169 1.49212 46.5478 1.95197Z" fill="#727272"/>
<path d="M13.5774 1.36585C8.64058 6.7082 6.46138 15.6302 7.2954 22.7848C7.77966 26.946 9.08897 31.0756 10.062 35.1376C11.0395 39.2086 12.0484 43.2481 14.2634 46.8412C14.7208 47.5806 15.8821 46.8998 15.4248 46.1604C13.3442 42.7882 12.3757 39.0193 11.4565 35.2007C10.5687 31.522 9.53288 27.8387 8.84684 24.1193C7.5465 17.0367 9.58221 7.67749 14.528 2.32162C15.1154 1.68143 14.1648 0.725673 13.5774 1.36585Z" fill="#727272"/>
<path d="M20.2407 1.92951C16.5638 8.43951 14.6313 15.8331 14.7299 23.326C14.7792 26.9236 15.2904 30.5257 16.2679 33.9881C17.4831 38.2845 19.3304 42.3601 20.1375 46.7737C20.2945 47.6303 21.5903 47.2651 21.4334 46.413C20.7294 42.5494 19.2363 38.9518 18.048 35.2279C16.8957 31.6122 16.2051 27.8839 16.0885 24.0834C15.8554 16.568 17.7117 9.14281 21.402 2.61027C21.8325 1.85287 20.6711 1.17211 20.2407 1.92951Z" fill="#727272"/>
<path d="M24.2043 3.22343C25.4822 10.7343 23.9308 18.2586 24.0608 25.8011C24.1191 29.2454 24.8858 32.4508 25.3342 35.8411C25.8006 39.3621 25.0024 42.9822 24.5675 46.4762C24.4599 47.3373 25.8051 47.3282 25.9127 46.4762C26.3521 42.9507 27.1458 39.3034 26.6794 35.7509C26.2041 32.1172 25.4015 28.6728 25.397 24.976C25.388 17.5779 26.7512 10.2339 25.5001 2.86727C25.3522 2.01069 24.0563 2.37136 24.2043 3.22343Z" fill="#727272"/>
<path d="M29.2489 2.59664C31.6119 9.38165 31.8989 16.5409 32.1365 23.6595C32.3966 31.3912 32.011 39.0013 30.5761 46.6113C30.4147 47.4634 31.7105 47.8285 31.872 46.972C33.3292 39.2447 33.7462 31.5084 33.4817 23.6595C33.2396 16.4236 32.9436 9.12918 30.5447 2.23597C30.2622 1.42448 28.9619 1.77613 29.2489 2.59664Z" fill="#727272"/>
<path d="M34.9074 2.62831C35.4051 4.15662 36.4813 5.1755 37.3063 6.51898C38.2479 8.0518 38.7636 9.7875 39.0416 11.5548C39.6469 15.4139 39.36 19.4533 39.351 23.344C39.342 27.5773 39.6649 32.0541 38.5753 36.1882C37.6157 39.8174 35.4141 42.9461 34.6787 46.652C34.5083 47.504 35.8042 47.8647 35.9746 47.0126C36.7638 43.0453 39.203 39.6866 40.0639 35.7374C40.9473 31.6979 40.6872 27.4511 40.6962 23.344C40.7051 19.548 40.9338 15.6663 40.4361 11.8929C40.2164 10.2248 39.8397 8.57477 39.1223 7.05096C38.3242 5.35133 36.7862 4.05744 36.2078 2.27215C35.9342 1.44713 34.6339 1.79878 34.9074 2.62831Z" fill="#727272"/>
<path d="M41.4496 2.41629C44.122 4.94094 45.4089 8.97137 46.3729 12.4518C47.3773 16.0765 47.0411 19.9446 46.8169 23.6549C46.364 31.1838 45.0995 38.7037 41.5079 45.4121C41.0953 46.1785 42.2567 46.8637 42.6692 46.0928C46.4985 38.9381 47.7764 30.8953 48.2024 22.8705C48.4176 18.831 48.5925 14.8863 47.3325 10.9956C46.2384 7.61888 45.0322 3.94911 42.4002 1.45602C41.7724 0.865426 40.8173 1.82119 41.4496 2.41629Z" fill="#727272"/>
<path d="M13.4697 5.79762C13.3307 6.15378 13.1783 6.50543 13.0124 6.85257C12.8016 7.28987 13.0482 7.88948 13.5953 7.87145C13.9854 7.85792 14.2948 7.6821 14.5728 7.41611C14.6625 7.33045 14.7521 7.24028 14.8373 7.15462C14.9494 7.04192 14.8015 7.22225 14.8867 7.11856C14.8687 7.14561 14.7746 7.13659 14.8598 7.14561C14.6445 6.86158 14.4293 6.57305 14.2096 6.28903C14.1513 6.59109 14.0885 6.89314 14.0302 7.19971C13.9585 7.55586 14.1334 7.93005 14.501 8.03375C14.8329 8.12391 15.2588 7.92104 15.3306 7.56037C15.3889 7.25832 15.4516 6.95626 15.5099 6.64969C15.5996 6.18985 15.3171 5.8382 14.8598 5.79311C14.4876 5.75705 14.1513 5.95541 13.8867 6.19886C13.7926 6.28452 13.7119 6.37469 13.6177 6.46034C13.5863 6.48739 13.5594 6.51444 13.528 6.54149C13.5415 6.52797 13.5549 6.51895 13.5684 6.50543C13.5011 6.54149 13.5011 6.546 13.5774 6.51444C13.5011 6.53248 13.5056 6.53699 13.5908 6.51444C13.7836 6.85257 13.9764 7.19069 14.1737 7.53332C14.3889 7.08249 14.5862 6.62264 14.7656 6.15829C14.8956 5.81566 14.6221 5.41442 14.2948 5.32425C13.9181 5.22056 13.6043 5.45499 13.4697 5.79762Z" fill="#727272"/>
<path d="M10.1382 13.8901C10.0754 14.2688 10.0127 14.6475 9.94988 15.0217C9.90056 15.3237 9.98127 15.6213 10.2593 15.7836C10.5059 15.9279 10.8781 15.9008 11.0754 15.6799C11.2054 15.5311 11.3354 15.3823 11.4655 15.2336C11.5506 15.1344 11.6717 14.9496 11.7748 14.8955C11.6627 14.927 11.5506 14.9586 11.4341 14.9856C11.4565 14.9811 11.4834 14.9811 11.5058 14.9766C11.3937 14.945 11.2816 14.9135 11.165 14.8864C11.183 14.9 11.2009 14.9135 11.2188 14.927C11.1067 14.7332 10.9946 14.5393 10.887 14.3409C10.9229 14.7286 10.8153 15.1614 10.7704 15.5537C10.7077 16.1172 11.3758 16.3246 11.7838 16.1397C12.3129 15.8918 12.6672 15.4364 12.8555 14.8909C12.4788 14.9901 12.1067 15.0893 11.73 15.1885C11.7166 15.1028 11.7031 15.0172 11.6897 14.9315C11.4699 15.7746 12.7703 16.1352 12.9855 15.2922C13.0842 14.909 12.9945 14.4897 12.6806 14.2327C12.277 13.9036 11.7345 14.0208 11.5551 14.5303C11.4744 14.7557 11.3085 14.8729 11.1023 14.9721C11.4386 15.1659 11.7748 15.3598 12.1156 15.5582C12.1829 14.9541 12.5057 13.8811 11.6807 13.6512C10.9857 13.4573 10.4969 14.2868 10.1203 14.7241C10.4969 14.945 10.8691 15.1614 11.2457 15.3823C11.3085 15.0036 11.3713 14.625 11.4341 14.2508C11.4924 13.8901 11.3399 13.5204 10.9633 13.4167C10.6449 13.3311 10.1965 13.5294 10.1382 13.8901Z" fill="#727272"/>
<path d="M9.55974 22.0366C9.60458 22.5686 9.6539 23.1005 9.69874 23.628C9.766 24.3809 10.7749 24.5567 11.0215 23.8083C11.156 23.3936 11.3443 23.0194 11.582 22.6497C11.174 22.5956 10.7614 22.5415 10.3534 22.4874C10.5103 22.8796 10.6179 23.2809 10.6762 23.7047C10.7435 24.1825 11.3219 24.2637 11.6627 24.1104C11.8331 24.0338 11.9721 23.885 12.0618 23.7227C12.1021 23.6506 12.1335 23.5649 12.1604 23.4883C12.1739 23.4477 12.1828 23.4071 12.1963 23.3665C12.2187 23.2989 12.2097 23.3034 12.1784 23.3801C12.0797 23.4387 11.9811 23.4973 11.8824 23.5559C11.9048 23.5469 11.9317 23.5424 11.9542 23.5333C11.8331 23.5333 11.7165 23.5333 11.5954 23.5333C11.5865 23.5288 11.5775 23.5243 11.573 23.5153C11.4923 23.4342 11.4116 23.353 11.3309 23.2719C11.3443 23.2899 11.3533 23.3079 11.3668 23.326C11.3443 23.1501 11.3219 22.9788 11.2995 22.803C11.295 22.8255 11.295 22.8481 11.2905 22.8661C11.2412 23.2268 11.3757 23.5919 11.7614 23.7001C12.0752 23.7858 12.5416 23.5919 12.5909 23.2268C12.6312 22.9337 12.6088 22.6677 12.3936 22.4468C12.2142 22.2665 11.9407 22.1808 11.6896 22.2079C11.4295 22.2394 11.2009 22.3927 11.0619 22.6136C11.0036 22.7083 10.9229 22.8391 10.9184 22.9473C10.9139 23.105 10.8466 22.9923 10.9901 22.9292C11.3174 23.0645 11.6493 23.1997 11.9766 23.335C11.9183 22.9157 11.8107 22.5145 11.6537 22.1177C11.4385 21.5857 10.757 21.4325 10.4251 21.9554C10.1292 22.4198 9.90052 22.9157 9.73013 23.4342C10.1696 23.4928 10.609 23.5559 11.0529 23.6145C11.0081 23.0825 10.9587 22.5505 10.9139 22.023C10.8825 21.6579 10.6269 21.3468 10.2413 21.3468C9.89603 21.3603 9.52835 21.6714 9.55974 22.0366Z" fill="#727272"/>
<path d="M11.1786 31.5762C11.2234 32.3561 11.6135 33.0369 12.2906 33.4336C12.739 33.6906 13.295 33.3615 13.304 32.8475C13.3084 32.4508 13.3981 32.0856 13.5506 31.7204C13.1739 31.8196 12.8018 31.9188 12.4251 32.018C12.6089 32.2434 12.8062 32.4418 13.026 32.6266C13.3847 32.9287 14.0393 32.8701 14.1514 32.3291C14.1783 32.2073 14.2097 32.1036 14.2501 31.9909C13.8734 32.0901 13.5013 32.1893 13.1246 32.2885C13.165 32.2659 13.1874 32.293 13.1829 32.3651C13.3264 32.7033 13.8196 32.7754 14.1021 32.6086C14.4474 32.4057 14.4877 32.0225 14.3442 31.6844C14.2859 31.5491 14.1918 31.4274 14.0752 31.3327C13.6582 31.0036 13.147 31.1253 12.9497 31.6303C12.9049 31.743 12.8735 31.8512 12.8511 31.9684C13.2277 31.8692 13.5999 31.77 13.9766 31.6708C13.7568 31.486 13.5595 31.2831 13.3757 31.0622C13.017 30.6204 12.4251 30.9495 12.2502 31.3598C12.0529 31.8331 11.9633 32.3336 11.9543 32.8475C12.2906 32.6537 12.6269 32.4598 12.9677 32.2614C12.7076 32.1127 12.5372 31.8782 12.5193 31.5717C12.4744 30.7151 11.1292 30.7061 11.1786 31.5762Z" fill="#727272"/>
<path d="M13.9497 40.8497C14.1066 41.2554 14.2949 41.6296 14.5505 41.9858C14.9496 42.5358 15.7433 42.3329 15.806 41.6431C15.8105 41.6026 15.8823 41.1021 15.8554 41.0796C15.6625 41.2013 15.4742 41.323 15.2814 41.4448C15.3263 41.5079 15.3666 41.5665 15.4159 41.6251C15.5863 41.8415 15.7971 42.0263 16.0706 42.103C16.2813 42.1571 16.5279 42.13 16.7118 42.0128C16.8329 41.9317 16.918 41.837 16.9808 41.7063C17.0032 41.6522 17.0257 41.5981 17.0481 41.544C17.1512 41.2194 16.9539 41.1653 16.4607 41.3817C16.7297 42.2022 18.0301 41.8505 17.7565 41.021C17.5682 40.4529 17.0212 40.0833 16.4248 40.3087C16.1827 40.4034 15.9719 40.5837 15.8554 40.8181C15.8195 40.8902 15.6894 41.2013 15.7343 41.2915C15.9944 41.1427 16.2499 40.9894 16.51 40.8407C16.4741 40.7956 16.4383 40.755 16.4069 40.7099C16.1917 40.2726 15.5684 40.0247 15.12 40.187C14.4878 40.4124 14.5147 41.0886 14.4653 41.6476C14.8823 41.5349 15.2993 41.4222 15.7208 41.305C15.537 41.0525 15.3711 40.7866 15.2545 40.4935C14.9317 39.691 13.6313 40.0382 13.9497 40.8497Z" fill="#727272"/>
<path d="M21.1374 5.98245C20.6532 6.34762 20.2496 6.78042 19.9851 7.33494C19.6398 8.05627 20.4424 8.62432 21.0433 8.15545C21.1868 8.04274 21.3303 7.93004 21.4737 7.81733C21.5365 7.76774 21.5993 7.71815 21.6666 7.66855C21.6979 7.6415 21.7293 7.61896 21.7607 7.59191C21.8728 7.51076 21.8145 7.52429 21.5858 7.62798C21.4737 7.59642 21.3616 7.56486 21.2451 7.53781C21.2585 7.54683 21.272 7.55585 21.2854 7.56486C21.2047 7.48371 21.124 7.40256 21.0433 7.32141C21.0298 7.26281 21.0119 7.20871 20.9984 7.1501C21.0029 7.08698 21.0029 7.07797 20.9895 7.13206C20.9581 7.15461 20.9491 7.30789 20.9491 7.33043C20.9177 7.53781 20.9357 7.74069 21.0433 7.93004C21.1419 8.10135 21.3168 8.25463 21.5096 8.30423C21.5903 8.32677 21.6935 8.33578 21.7787 8.33578C21.8594 8.33578 21.9311 8.32226 22.0028 8.29521C22.097 8.26816 22.0656 8.25914 21.9042 8.26816C21.8056 8.20955 21.7069 8.15094 21.6083 8.09234C21.6217 8.10586 21.6352 8.11939 21.6486 8.13291C21.5903 8.03373 21.532 7.93454 21.4737 7.83536C21.4782 7.84889 21.4827 7.86692 21.4872 7.88044C21.5096 7.70462 21.532 7.5333 21.5545 7.35748C21.5455 7.37101 21.541 7.38453 21.532 7.39806C21.124 8.16447 22.2853 8.84973 22.6934 8.07881C22.8683 7.75421 22.8279 7.38904 22.5544 7.13206C22.4109 6.99682 22.2181 6.91567 22.0208 6.91116C21.9087 6.90665 21.7787 6.97878 21.68 6.96977C21.7921 7.00132 21.9042 7.03288 22.0208 7.05993C22.0029 7.04641 21.9849 7.03288 21.9715 7.02387C22.0522 7.10502 22.1329 7.18617 22.2136 7.26731C22.2046 7.24928 22.1957 7.23125 22.1867 7.21321C22.2181 7.32592 22.2495 7.43863 22.2764 7.55585C22.2674 7.47019 22.2809 7.51527 22.3122 7.38904C22.3481 7.23125 22.3526 7.05993 22.3167 6.89763C22.2405 6.57303 21.9984 6.3386 21.6755 6.27999C21.3392 6.21688 21.1105 6.3927 20.855 6.59107C20.5994 6.78943 20.3438 6.99231 20.0882 7.19067C20.4424 7.46568 20.7922 7.73618 21.1464 8.01119C21.3078 7.67757 21.5141 7.37101 21.8145 7.14559C22.106 6.92919 22.2539 6.55951 22.0567 6.22139C21.8908 5.93736 21.4334 5.76605 21.1374 5.98245Z" fill="#727272"/>
<path d="M18.5053 13.5925C18.3932 14.1335 18.2856 14.6745 18.1735 15.22C18.0345 15.9097 18.7788 16.3065 19.299 15.8782C19.4514 15.7519 19.5859 15.5941 19.6846 15.4228C19.7518 15.3056 19.8325 15.0667 19.8684 15.0081C19.7877 15.0892 19.707 15.1704 19.6263 15.2515C19.6487 15.238 19.6666 15.2245 19.6891 15.2064C19.577 15.238 19.4649 15.2696 19.3483 15.2966C19.3752 15.2921 19.4021 15.2921 19.429 15.2876C19.3169 15.256 19.2048 15.2245 19.0882 15.1974C18.9806 15.1478 18.9761 14.972 19.0075 15.2019C19.0165 15.2605 19.0299 15.3101 19.0479 15.3642C19.1106 15.5671 19.2227 15.7474 19.3931 15.8737C19.5501 15.9909 19.7339 16.054 19.9312 16.0495C20.0523 16.045 20.1644 16.0134 20.272 15.9593C20.3303 15.9368 20.3796 15.9052 20.4244 15.8646C20.541 15.7835 20.5096 15.788 20.3347 15.8692C20.2226 15.8376 20.1105 15.806 19.994 15.779C20.0119 15.788 20.0164 15.797 20.0298 15.8331C20.3168 16.6491 21.6171 16.2974 21.3257 15.4724C21.2001 15.1163 21.0163 14.7872 20.671 14.6113C20.4917 14.5167 20.2675 14.4896 20.0702 14.5347C19.8729 14.5798 19.7563 14.7105 19.5859 14.7917C19.698 14.7601 19.8101 14.7286 19.9267 14.7015C19.9043 14.7015 19.8774 14.7015 19.855 14.7015C19.9671 14.7331 20.0792 14.7646 20.1957 14.7917C20.3168 15.0036 20.3527 15.0351 20.3034 14.8863C20.2944 14.8277 20.2854 14.7691 20.2765 14.7105C20.2451 14.5933 20.1957 14.4716 20.133 14.3724C19.9671 14.1109 19.6935 13.9396 19.3841 13.9441C19.0792 13.9486 18.8012 14.1244 18.6577 14.3904C18.5367 14.6158 18.5457 14.7511 18.3394 14.9224C18.716 15.1433 19.0882 15.3597 19.4649 15.5806C19.577 15.0396 19.6846 14.4986 19.7967 13.9576C19.976 13.1011 18.6802 12.7404 18.5053 13.5925Z" fill="#727272"/>
<path d="M17.9851 20.5038C17.8461 21.2296 17.7565 21.96 17.734 22.6948C17.7161 23.2088 18.3169 23.5334 18.7474 23.2809C18.9447 23.1637 19.0882 23.0059 19.1958 22.803C19.2362 22.7264 19.3527 22.5506 19.3303 22.4829C19.3258 22.4739 19.2855 22.5325 19.3034 22.5235C19.1913 22.5551 19.0792 22.5866 18.9626 22.6137C18.9537 22.6182 18.9402 22.6182 18.9312 22.6227C18.8505 22.5416 18.7698 22.4604 18.6891 22.3793C18.7653 22.4784 18.7564 22.4694 18.7653 22.5731C18.8147 23.1276 19.4783 23.4973 19.9132 23.051C19.9626 22.9969 20.0119 22.9473 20.0657 22.8977C19.9715 22.9428 19.8729 22.9338 19.7787 22.8797C19.7204 22.7805 19.6621 22.6813 19.6038 22.5821C19.6128 22.6092 19.6218 22.6362 19.6352 22.6633C19.7608 23.0059 20.0926 23.2403 20.4648 23.1367C20.7921 23.0465 21.0611 22.6498 20.9356 22.3026C20.5858 21.3469 19.568 21.4686 18.9626 22.0952C19.3438 22.253 19.7294 22.4153 20.1105 22.5731C20.0567 21.9194 19.7339 21.2116 18.9626 21.2612C18.6488 21.2792 18.3708 21.4641 18.2048 21.7301C18.1466 21.8247 18.1062 21.9329 18.0614 22.0366C18.012 22.1493 17.9268 22.1899 18.0658 22.1088C18.4021 22.3026 18.7384 22.4965 19.0792 22.6948C19.0972 22.0772 19.1644 21.4686 19.281 20.86C19.4469 20.0124 18.151 19.6517 17.9851 20.5038Z" fill="#727272"/>
<path d="M18.6532 28.2265C18.8056 28.8306 18.9895 29.4212 19.2047 30.0028C19.3796 30.4762 19.9401 30.6746 20.3302 30.3004C20.5006 30.1336 20.6171 29.9397 20.6754 29.7053C20.6979 29.6106 20.7158 29.4979 20.7203 29.4032C20.7337 29.1147 20.7023 29.3536 20.7292 29.3401C20.6171 29.3716 20.505 29.4032 20.3885 29.4303C20.4198 29.4303 20.4468 29.4257 20.4781 29.4257C20.366 29.3942 20.2539 29.3626 20.1374 29.3356C20.0477 29.295 20.0746 29.2544 20.1463 29.3807C20.1822 29.4438 20.2136 29.4979 20.2584 29.5565C20.3974 29.7368 20.5678 29.8585 20.7965 29.8901C20.9983 29.9172 21.1911 29.8676 21.3615 29.7503C21.4556 29.6827 21.5408 29.6061 21.6036 29.5069C21.6305 29.4528 21.6574 29.3987 21.6798 29.3446C21.7695 29.1688 21.6933 29.2139 21.4512 29.4844C21.3301 29.4844 21.2135 29.4844 21.0924 29.4844C21.0386 29.4393 20.9893 29.3897 20.9355 29.3446C20.9041 29.2319 20.8727 29.1192 20.8458 29.002C20.8458 29.029 20.8458 29.0561 20.8458 29.0831C20.8324 29.9532 22.1776 29.9532 22.191 29.0831C22.2 28.6278 21.8861 28.2716 21.4512 28.1814C21.218 28.1319 20.9848 28.1814 20.792 28.3212C20.6979 28.3888 20.6216 28.4655 20.5589 28.5601C20.5454 28.5872 20.5319 28.6188 20.514 28.6458C20.3974 28.8712 20.4288 28.8667 20.6127 28.6323C20.7248 28.6007 20.8369 28.5692 20.9534 28.5421C20.931 28.5466 20.9086 28.5466 20.8862 28.5511C20.9983 28.5827 21.1104 28.6142 21.227 28.6413C21.4198 28.736 21.3211 28.7044 21.2494 28.5782C21.1956 28.479 21.1238 28.3843 21.0431 28.3122C20.7875 28.0823 20.4512 28.0237 20.1329 28.1364C19.8773 28.2265 19.6845 28.4249 19.5544 28.6548C19.4827 28.7856 19.4468 28.9163 19.4199 29.0606C19.4065 29.1237 19.4199 29.304 19.3796 29.3446C19.7562 29.4438 20.1284 29.543 20.505 29.6421C20.2898 29.0606 20.106 28.4655 19.9535 27.8659C19.7338 27.0273 18.4379 27.3835 18.6532 28.2265Z" fill="#727272"/>
<path d="M19.3302 34.687C19.5724 35.4038 19.8818 36.0936 20.2629 36.7428C20.5364 37.2071 21.1418 37.153 21.4242 36.7428C21.5005 36.63 21.5543 36.5128 21.5901 36.3821C21.5946 36.3415 21.5991 36.3054 21.6081 36.2649C21.6798 36.0034 21.617 36.0124 21.4108 36.2964C21.2897 36.2964 21.1731 36.2964 21.0521 36.2964C20.8637 36.2378 20.9489 36.2513 21.0476 36.3595C21.1193 36.4362 21.209 36.5173 21.3032 36.5714C21.496 36.6796 21.7247 36.7202 21.9444 36.7022C22.4466 36.6661 22.7918 36.3325 22.9577 35.8772C23.2582 35.0611 21.9578 34.705 21.6619 35.5165C21.7471 35.2911 21.9578 35.4173 21.922 35.3091C21.8951 35.2325 21.7381 35.1288 21.6664 35.0882C21.4467 34.962 21.1821 34.9349 20.9445 35.0161C20.7247 35.0882 20.5499 35.255 20.4378 35.4579C20.3391 35.6382 20.366 35.9087 20.2584 36.062C20.644 36.062 21.0341 36.062 21.4198 36.062C21.0924 35.5075 20.8279 34.9394 20.6216 34.3308C20.3526 33.5103 19.0522 33.8619 19.3302 34.687Z" fill="#727272"/>
<path d="M21.1014 42.4007C21.1058 42.7749 21.1597 43.149 21.2762 43.5007C21.3614 43.7577 21.5632 43.947 21.8367 43.9831C22.0833 44.0146 22.3927 43.9019 22.5048 43.6585C22.5811 43.4962 22.6573 43.3339 22.7335 43.1761C22.7694 43.0995 22.8053 43.0273 22.8367 42.9507C22.8546 42.9146 22.8725 42.874 22.8905 42.838C22.9263 42.7703 22.9263 42.7703 22.8905 42.838C22.7918 42.8966 22.6932 42.9552 22.5945 43.0138C22.608 43.0093 22.6259 43.0003 22.6394 42.9958C22.5183 42.9958 22.4017 42.9958 22.2806 42.9958C22.2582 42.9867 22.2313 42.9732 22.2089 42.9642C22.1282 42.8831 22.0475 42.8019 21.9668 42.7208C21.8995 42.608 21.9623 42.7027 21.9892 42.7794C22.0116 42.8515 22.0385 42.9191 22.0609 42.9913C22.1103 43.131 22.1596 43.2753 22.2044 43.415C22.321 43.7622 22.6663 43.9876 23.0339 43.8884C23.3658 43.7982 23.6213 43.4015 23.5048 43.0544C23.3119 42.4953 23.1505 41.5756 22.3703 41.6793C21.765 41.7605 21.5632 42.4998 21.339 42.9777C21.7471 43.0318 22.1596 43.0859 22.5676 43.14C22.4824 42.874 22.4421 42.6576 22.4376 42.3962C22.4331 42.0445 22.1327 41.7019 21.765 41.7199C21.4108 41.7379 21.0969 42.022 21.1014 42.4007Z" fill="#727272"/>
<path d="M27.2803 43.2211C27.2444 43.5276 27.2085 43.8387 27.1727 44.1453C27.1368 44.4338 27.4058 44.7268 27.6659 44.799C27.9708 44.8846 28.2533 44.7359 28.4237 44.4879C28.5448 44.3121 28.6658 44.1408 28.7869 43.9649C28.8407 43.8838 28.899 43.8071 28.9528 43.726C28.9752 43.6944 28.9976 43.6629 29.02 43.6313C29.1187 43.4961 29.1052 43.5051 28.9842 43.6584C28.8721 43.6899 28.76 43.7215 28.6434 43.7485C28.6658 43.7485 28.6838 43.7485 28.7062 43.7485C28.5941 43.717 28.482 43.6854 28.3654 43.6584C28.2309 43.4239 28.186 43.3789 28.2309 43.5231C28.2443 43.5772 28.2533 43.6358 28.2667 43.6899C28.2892 43.8026 28.3116 43.9108 28.3385 44.0235C28.3878 44.258 28.4102 44.533 28.5313 44.7449C28.6479 44.9432 28.8407 45.1146 29.0649 45.1777C29.4102 45.2723 29.6926 45.0965 29.8944 44.826C30.1141 44.533 29.9393 44.0686 29.6523 43.9018C29.307 43.6989 28.9528 43.8522 28.7331 44.1453C28.7241 44.1588 28.7151 44.1723 28.7062 44.1813C28.899 44.0686 29.0918 43.9559 29.2891 43.8477C29.2756 43.8477 29.2622 43.8522 29.2487 43.8522C29.3608 43.8838 29.4729 43.9153 29.5895 43.9424C29.7061 44.001 29.7778 44.3301 29.7106 43.9965C29.6926 43.9018 29.6702 43.8117 29.6523 43.717C29.6164 43.5502 29.585 43.3834 29.5492 43.2166C29.4684 42.8649 29.2577 42.5223 28.89 42.4186C28.482 42.3059 28.1591 42.5403 27.9305 42.8469C27.7018 43.1579 27.4865 43.478 27.2668 43.7936C27.6838 43.9063 28.1008 44.019 28.5223 44.1363C28.5582 43.8297 28.5941 43.5186 28.6299 43.212C28.6703 42.8469 28.2892 42.5358 27.9574 42.5358C27.5583 42.5448 27.3251 42.8604 27.2803 43.2211Z" fill="#727272"/>
<path d="M27.926 30.8728C27.7601 31.5942 27.6794 32.3335 27.6929 33.0729C27.7018 33.7086 28.6345 34.0377 28.9484 33.4155C29.0829 33.145 29.2174 32.879 29.3519 32.6085C29.4506 32.4102 29.5223 32.1622 29.7017 32.0225C29.603 32.0811 29.5044 32.1397 29.4057 32.1983C29.4057 32.1938 29.4057 32.1893 29.4102 32.1848C29.195 32.018 28.9797 31.8557 28.76 31.6889C28.8452 32.0089 28.9304 32.329 29.0156 32.6491C29.1232 33.0504 29.6389 33.2938 30.0021 33.0549C30.0649 33.0143 30.1276 32.9692 30.1904 32.9286C30.9078 32.4508 30.2352 31.2786 29.5133 31.761C29.4506 31.8016 29.3878 31.8466 29.325 31.8872C29.6523 32.0225 29.9841 32.1577 30.3115 32.293C30.2263 31.9729 30.1411 31.6528 30.0559 31.3327C29.9797 31.0487 29.7017 30.8323 29.4057 30.8368C28.4596 30.8548 28.1368 32.036 27.787 32.7393C28.204 32.852 28.621 32.9647 29.0425 33.0819C29.0335 32.4553 29.0874 31.8512 29.2264 31.238C29.4147 30.386 28.1188 30.0253 27.926 30.8728Z" fill="#727272"/>
<path d="M26.6437 20.7562C26.675 21.2881 26.7019 21.8156 26.7333 22.3476C26.7692 23.0148 27.6212 23.2718 27.9888 22.6902C28.2489 22.2755 28.509 21.8652 28.769 21.4504C28.3834 21.4504 27.9933 21.4504 27.6077 21.4504C27.7019 21.6127 27.7602 21.7615 27.7691 21.9509C27.8005 22.546 28.4776 22.83 28.917 22.4287C29.2578 22.1222 29.4775 21.7525 29.6434 21.3242C29.3161 21.4595 28.9843 21.5947 28.6569 21.73C28.6569 21.739 28.6569 21.748 28.6525 21.7525C28.5942 21.6533 28.5359 21.5541 28.4776 21.455C28.491 21.482 28.5 21.5136 28.5135 21.5406C28.6525 21.8787 28.9574 22.1177 29.343 22.014C29.6569 21.9283 29.9528 21.5226 29.8138 21.1799C29.6972 20.9049 29.5762 20.7381 29.334 20.5578C28.9529 20.2738 28.4866 20.5984 28.3476 20.9635C28.2668 21.1709 28.1278 21.3242 27.9664 21.473C28.3476 21.6308 28.7332 21.7931 29.1143 21.9509C29.0919 21.5271 28.9843 21.1349 28.769 20.7697C28.5045 20.3234 27.8767 20.3414 27.6077 20.7697C27.3476 21.1845 27.0876 21.5947 26.8275 22.0095C27.2445 22.1222 27.6615 22.2349 28.083 22.3521C28.0516 21.8201 28.0247 21.2927 27.9933 20.7607C27.9395 19.8906 26.5943 19.8861 26.6437 20.7562Z" fill="#727272"/>
<path d="M27.0069 11.8162C26.9666 12.1588 26.9486 12.5014 26.9576 12.8441C26.971 13.3129 27.536 13.7457 27.971 13.4302C28.1952 13.2679 28.3342 13.083 28.4104 12.817C28.4283 12.7539 28.4463 12.6818 28.4552 12.6187C28.4642 12.56 28.5001 12.5555 28.4507 12.6006C28.2176 12.817 27.971 13.1281 27.5988 12.6773C27.6391 12.7269 27.6257 12.7223 27.5988 12.6637C27.6302 12.7314 27.6526 12.808 27.684 12.8756C27.7378 12.9928 27.8185 13.0965 27.9082 13.1867C28.1862 13.4617 28.5987 13.5158 28.935 13.322C29.2534 13.1416 29.3565 12.7088 29.1771 12.3977C28.9888 12.0777 28.5763 11.974 28.2579 12.1543C28.2445 12.1633 28.2265 12.1723 28.2131 12.1813C28.3252 12.1498 28.4373 12.1182 28.5539 12.0912C28.5897 12.0867 28.9126 12.267 28.8857 12.276C28.9036 12.3121 28.9036 12.3121 28.8902 12.2805C28.8767 12.2445 28.8633 12.2084 28.8453 12.1723C28.7915 12.0416 28.7287 11.9199 28.6301 11.8117C28.4104 11.5817 28.0696 11.469 27.7602 11.5682C27.4688 11.6584 27.2759 11.8928 27.1818 12.1768C27.1594 12.24 27.1504 12.3031 27.1325 12.3707C27.1235 12.4023 27.1145 12.4293 27.11 12.4609C27.0921 12.5195 27.0921 12.5195 27.1145 12.4609C27.1414 12.3752 27.1997 12.3076 27.2894 12.2625C27.6257 12.4564 27.962 12.6502 28.3028 12.8486C28.2938 12.5059 28.3117 12.1633 28.3521 11.8207C28.3969 11.469 28.0113 11.1309 27.6795 11.1444C27.2804 11.1625 27.0562 11.442 27.0069 11.8162Z" fill="#727272"/>
<path d="M26.5943 4.88236C26.4687 5.37828 26.5315 5.88772 26.796 6.32502C27.1099 6.857 27.8318 6.69471 28.0246 6.16272C28.0964 5.96436 27.9888 6.28445 28.056 6.08157C28.0829 6.00493 28.1054 6.041 28.0381 6.07256C27.8318 6.18076 27.5538 6.10862 27.4911 5.83813C27.5763 6.19428 27.9753 6.40617 28.3206 6.3115C28.6793 6.21232 28.8766 5.83813 28.7914 5.47746C28.6703 4.96351 28.1143 4.68851 27.6166 4.80572C27.1279 4.92745 26.8902 5.35574 26.7288 5.79755C27.1368 5.74345 27.5493 5.68935 27.9574 5.63525C27.8901 5.51804 27.8812 5.52705 27.8677 5.38729C27.8767 5.45943 27.8722 5.36926 27.8722 5.34672C27.8812 5.14835 27.8453 5.42787 27.8901 5.23401C27.9753 4.89138 27.778 4.48563 27.4193 4.39997C27.0741 4.32784 26.6884 4.51268 26.5943 4.88236Z" fill="#727272"/>
<path d="M7.36709 3.28648C7.1698 3.54797 6.99044 3.82297 6.8335 4.11151C6.56895 4.58488 7.01734 5.32424 7.59129 5.10333C7.79755 5.02669 7.99933 4.94554 8.20559 4.8689C7.93207 4.71111 7.65406 4.55332 7.37606 4.39553C7.41193 4.49922 7.42987 4.56684 7.42538 4.67054C7.4209 5.01317 7.73926 5.37834 8.09797 5.34678C8.43427 5.31973 8.72124 5.23858 9.02167 5.09432C9.34899 4.93653 9.43419 4.46315 9.2638 4.17011C9.0665 3.83199 8.67192 3.76887 8.34459 3.92666C8.27733 3.95822 8.15178 3.98978 8.09797 3.99429C8.32217 4.2197 8.54637 4.44512 8.77056 4.67054C8.77505 4.45414 8.74366 4.23774 8.67192 4.03486C8.55982 3.71477 8.20559 3.42624 7.84239 3.56149C7.63613 3.63813 7.43435 3.71928 7.22809 3.79592C7.47919 4.12503 7.73477 4.45865 7.98588 4.78775C8.1473 4.49922 8.32217 4.22421 8.51946 3.96273C8.73918 3.66969 8.5643 3.20534 8.27733 3.03853C7.94104 2.84467 7.5868 2.99344 7.36709 3.28648Z" fill="#727272"/>
<path d="M3.56023 10.8785C3.30465 11.442 3.08493 12.0191 2.90558 12.6142C2.79348 12.9839 3.04009 13.3265 3.37639 13.4482C3.66336 13.5519 3.97275 13.4888 4.22385 13.3265C4.33147 13.2544 4.40321 13.1823 4.48392 13.0876C4.79331 12.7179 4.36734 13.1958 4.11624 12.8847C4.05795 12.7855 3.99966 12.6863 3.94137 12.5872C3.90549 12.4609 3.9324 12.7224 3.9324 12.7179C3.94585 12.8216 3.97275 12.9298 4.02656 13.0245C4.12969 13.2003 4.31802 13.3446 4.51083 13.3987C4.87403 13.4978 5.34035 13.3581 5.49729 12.9884C5.64078 12.6548 5.59594 12.2626 5.25516 12.0642C4.97267 11.8974 4.47944 11.9695 4.33595 12.3076C4.3494 12.2896 4.36286 12.2716 4.38079 12.2581C4.47944 12.1994 4.57809 12.1408 4.67673 12.0822C4.81125 12.1228 4.94577 12.1634 5.08029 12.204C5.13858 12.3031 5.19687 12.4023 5.25516 12.5015C5.29103 12.6277 5.26413 12.3167 5.25516 12.2851C5.21929 12.1499 5.15651 12.0281 5.06683 11.9289C4.90093 11.7531 4.6857 11.6494 4.44357 11.6359C4.22385 11.6269 4.02208 11.69 3.84272 11.8162C3.75752 11.8748 3.68578 11.9425 3.61852 12.0236C3.34052 12.3482 3.53333 12.0732 3.73959 12.1453C3.89653 12.4249 4.05346 12.6999 4.2104 12.9794C4.35389 12.497 4.52428 12.0281 4.73054 11.5683C4.87851 11.2347 4.8247 10.8424 4.48841 10.6441C4.19247 10.4683 3.7082 10.5449 3.56023 10.8785Z" fill="#727272"/>
<path d="M2.07161 18.8537C1.92812 19.6291 1.92812 20.382 2.08057 21.1574C2.1568 21.5406 2.56932 21.6849 2.9101 21.6308C3.1074 21.5992 3.29124 21.4865 3.43024 21.3377C3.48853 21.2746 3.54234 21.198 3.59166 21.1259C3.61857 21.0853 3.64099 21.0447 3.66341 20.9996C3.70376 20.9365 3.69031 20.941 3.61408 21.0041C3.49302 21.0041 3.37643 21.0041 3.25537 21.0041C3.28675 21.0131 3.31814 21.0222 3.34953 21.0312C3.25088 20.9726 3.15224 20.914 3.05359 20.8554C3.00427 20.7517 2.99978 20.7562 3.04462 20.8689C3.06704 20.923 3.08946 20.9771 3.11188 21.0312C3.18362 21.1664 3.28227 21.2746 3.40782 21.3558C3.70824 21.5587 3.98176 21.5451 4.30461 21.3964C4.63642 21.2476 4.71713 20.7607 4.54674 20.4722C4.34945 20.1295 3.95935 20.0799 3.62753 20.2287C3.60511 20.2377 3.57821 20.2512 3.55579 20.2603C3.73066 20.2377 3.90105 20.2152 4.07593 20.1926C4.04902 20.1836 4.02212 20.1791 3.99522 20.1701C4.09386 20.2287 4.19251 20.2873 4.29116 20.3459C4.31806 20.4361 4.31806 20.4451 4.29564 20.3775C4.27322 20.3053 4.24632 20.2377 4.21493 20.1746C4.17457 20.098 4.12973 20.0213 4.06696 19.9582C3.87863 19.7553 3.61857 19.6607 3.34505 19.6877C3.1074 19.7102 2.89665 19.8275 2.73075 19.9988C2.65004 20.0799 2.58278 20.1746 2.52448 20.2738C2.51103 20.3008 2.4931 20.3279 2.47965 20.3549C2.39445 20.4812 2.41687 20.4676 2.55139 20.3189C2.82491 20.4767 3.10291 20.6344 3.38092 20.7922C3.27779 20.2693 3.2733 19.7328 3.37195 19.2098C3.43921 18.8492 3.2733 18.4795 2.90114 18.3758C2.56932 18.2901 2.13887 18.493 2.07161 18.8537Z" fill="#727272"/>
<path d="M3.03121 28.6142C3.21953 28.9929 3.40337 29.3716 3.5917 29.7503C3.75761 30.0839 4.21048 30.1605 4.51091 29.9937C4.75304 29.8585 4.91895 29.6421 4.99517 29.3716C5.03104 29.2498 5.05346 29.0966 5.04001 28.9703C5.02656 28.8261 5.08934 28.8666 5.01311 28.9343C4.91446 28.9929 4.81582 29.0515 4.71717 29.1101C4.7082 29.1146 4.69923 29.1146 4.69027 29.1191C4.57817 29.0875 4.46607 29.056 4.34949 29.0289C4.58265 29.1642 4.69475 29.3806 5.03553 29.3806C5.43908 29.3806 5.52876 29.1416 5.77089 28.9027C5.67225 28.9613 5.5736 29.0199 5.47495 29.0785C5.34492 28.9974 5.21489 28.9162 5.08485 28.8306C5.13866 29.1912 5.59154 29.3896 5.91438 29.3039C6.3 29.1957 6.439 28.8351 6.38519 28.4699C6.32242 28.0642 5.94128 27.7621 5.5467 27.7215C5.08485 27.6764 4.78443 27.9289 4.56472 28.3076C4.64543 28.2265 4.72614 28.1453 4.80685 28.0642C4.78443 28.0822 4.75752 28.1002 4.7351 28.1183C4.8472 28.0867 4.9593 28.0551 5.07588 28.0281C5.05346 28.0281 5.02656 28.0281 5.00414 28.0281C5.11624 28.0596 5.22834 28.0912 5.34492 28.1183C5.26421 28.0732 5.05346 27.8432 4.87411 27.7937C4.61852 27.7215 4.34949 27.7756 4.13874 27.9334C3.95042 28.0732 3.82038 28.2806 3.75312 28.5015C3.70828 28.6412 3.75761 28.9252 3.68586 29.0244C3.76657 28.9433 3.84728 28.8621 3.928 28.781C3.90109 28.7945 3.87419 28.8125 3.8428 28.8261C4.14771 28.9072 4.4571 28.9884 4.76201 29.0695C4.57368 28.6908 4.38984 28.3121 4.20152 27.9334C3.80693 27.149 2.64559 27.8342 3.03121 28.6142Z" fill="#727272"/>
<path d="M7.18323 38.6587C7.16081 39.2403 7.76165 39.5694 8.26834 39.4116C8.51047 39.3349 8.68535 39.1636 8.80193 38.9472C8.81986 38.9111 8.8378 38.8706 8.85574 38.8345C8.95438 38.6767 8.85574 38.7218 8.55083 38.9788C8.41183 38.9607 8.4746 38.9607 8.57325 39.0148C8.89161 39.1907 9.30861 39.0915 9.49246 38.7714C9.67181 38.4603 9.56868 38.023 9.25032 37.8472C8.91851 37.6623 8.54186 37.5541 8.17418 37.7074C7.98585 37.7886 7.82891 37.9238 7.7213 38.1042C7.68991 38.1538 7.65852 38.2124 7.64059 38.271C7.63162 38.289 7.62265 38.307 7.61368 38.3251C7.84685 38.0636 8.08898 38.041 8.34457 38.2574C8.40286 38.3566 8.46115 38.4558 8.51944 38.555C8.52392 38.5911 8.52841 38.6271 8.53289 38.6632C8.54634 38.307 8.21453 37.9689 7.8603 37.9869C7.47917 38.0005 7.19668 38.28 7.18323 38.6587Z" fill="#727272"/>
<path d="M32.0379 5.15745C32.1186 5.56319 32.2576 5.94189 32.4324 6.31608C32.5983 6.66322 33.0512 6.70831 33.3516 6.55953C33.522 6.47387 33.661 6.32059 33.7507 6.15378C33.7776 6.10419 33.7956 6.05009 33.8225 5.99599C33.9659 5.68492 33.818 6.15378 33.4727 6.11772C33.3606 6.08616 33.2485 6.0546 33.1319 6.02755C33.0557 5.99148 33.244 6.11321 33.244 6.11321C33.3158 6.16731 33.3651 6.19887 33.4503 6.23493C33.6252 6.31157 33.8045 6.3251 33.9929 6.29805C34.3964 6.23042 34.6341 5.96894 34.7865 5.60377C34.9255 5.26565 34.6341 4.8599 34.3157 4.76973C33.9301 4.66153 33.6297 4.90498 33.4862 5.2431C33.6431 4.95006 33.8404 4.88695 34.0736 5.05375C34.0556 5.03572 34.0377 5.01769 34.0153 5.00416C33.9301 4.91851 33.7687 4.82834 33.6521 4.79678C33.4368 4.73817 33.2037 4.77424 33.0154 4.88695C32.8584 4.98162 32.7463 5.1304 32.6701 5.2927C32.6522 5.33327 32.6297 5.37835 32.6118 5.42344C32.5625 5.5677 32.5894 5.43245 32.6701 5.39639C32.975 5.47754 33.2844 5.55869 33.5893 5.63984C33.4637 5.37384 33.3875 5.09433 33.3292 4.8058C33.262 4.44513 32.8315 4.24226 32.4997 4.33242C32.1365 4.4271 31.9706 4.79678 32.0379 5.15745Z" fill="#727272"/>
<path d="M33.5982 12.8982C33.6834 13.3265 33.773 13.7547 33.8582 14.183C34.0017 14.8908 34.9478 14.7601 35.1541 14.183C35.2214 13.9892 35.3379 13.8629 35.4859 13.7277C35.1317 13.6826 34.7819 13.6375 34.4277 13.5924C34.5443 13.8629 34.6653 14.138 34.7819 14.4085C34.9164 14.7195 35.4366 14.8548 35.7011 14.6519C35.8626 14.5302 35.9926 14.422 36.0957 14.2416C36.1316 14.1785 36.1719 14.1019 36.1944 14.0298C36.2033 13.9982 36.2168 13.9666 36.2347 13.9396C36.3423 13.7412 36.1361 13.6781 35.6115 13.7502C35.5621 14.1109 35.9567 14.4265 36.284 14.4265C36.6876 14.4265 36.9073 14.1154 36.9566 13.7502C37.0329 13.1867 36.5082 12.6773 35.9657 12.6773C35.6922 12.6773 35.4455 12.799 35.2617 12.9928C35.1765 13.083 35.1182 13.1822 35.0599 13.2904C35.0241 13.3625 34.8851 13.5879 35.0241 13.4842C35.329 13.5654 35.6384 13.6465 35.9433 13.7277C35.8267 13.4572 35.7056 13.1822 35.589 12.9117C35.4052 12.4879 34.8178 12.515 34.5308 12.7764C34.208 13.0695 34.0017 13.4211 33.8538 13.8269C34.2842 13.8269 34.7192 13.8269 35.1496 13.8269C35.0644 13.3986 34.9747 12.9703 34.8895 12.542C34.7236 11.6854 33.4233 12.0461 33.5982 12.8982Z" fill="#727272"/>
<path d="M34.7774 23.2403C34.737 23.5784 34.7774 23.9256 34.8671 24.2502C34.9792 24.6424 35.4903 24.9084 35.8535 24.6559C36.0912 24.4891 36.2347 24.3088 36.3378 24.0383C36.3647 23.9707 36.3871 23.8985 36.4095 23.8264C36.4499 23.6821 36.4095 23.876 36.293 23.894C36.1719 23.894 36.0553 23.894 35.9342 23.894C35.8221 23.8489 35.7504 23.7813 35.7325 23.6821C35.719 23.6371 35.7235 23.6506 35.7504 23.7227C35.7639 23.7633 35.7773 23.8084 35.7908 23.8489C35.867 24.0563 35.9746 24.2231 36.145 24.3629C36.5127 24.6604 36.9297 24.6109 37.2884 24.3313C37.5754 24.1059 37.5216 23.61 37.2884 23.3756C37.0059 23.0915 36.6248 23.1502 36.3378 23.3756C36.3243 23.3891 36.3064 23.3981 36.293 23.4116C36.3916 23.353 36.4902 23.2944 36.5889 23.2358C36.571 23.2403 36.553 23.2448 36.5351 23.2493C36.6562 23.2493 36.7727 23.2493 36.8938 23.2493C36.9745 23.2629 37.0911 23.5108 37.0418 23.362C37.0059 23.2448 36.9611 23.1231 36.8983 23.0194C36.71 22.7129 36.3781 22.537 36.0239 22.5731C35.71 22.6047 35.4545 22.803 35.2841 23.0645C35.2123 23.1772 35.163 23.3034 35.1226 23.4297C35.1092 23.4702 35.0823 23.5289 35.0778 23.5694C35.0733 23.628 35.0644 23.5559 35.1765 23.4793C35.5038 23.6145 35.8356 23.7498 36.1629 23.885C36.1001 23.6641 36.0912 23.4657 36.1181 23.2358C36.1584 22.8706 35.7773 22.5596 35.4455 22.5596C35.0554 22.5641 34.8222 22.8752 34.7774 23.2403Z" fill="#727272"/>
<path d="M34.4053 31.202C34.3694 31.6438 34.4053 32.0766 34.4725 32.5139C34.5532 33.0233 35.2752 33.154 35.598 32.8114C35.7146 32.6897 35.8356 32.568 35.9612 32.4553C36.0733 32.3561 36.1899 32.2569 36.2796 32.1938C35.9522 32.0585 35.6204 31.9233 35.2931 31.788C35.3334 31.9052 35.3334 31.77 35.32 31.8962C35.329 31.8016 35.2662 31.9819 35.311 31.9052C35.1362 32.2253 35.2348 32.6446 35.5532 32.8295C35.8626 33.0098 36.2975 32.9106 36.4724 32.586C36.6652 32.2298 36.728 31.8151 36.5934 31.4274C36.4634 31.0577 35.9791 30.7466 35.607 31.0216C35.2662 31.2741 34.9478 31.5446 34.6564 31.8511C35.033 31.9503 35.4052 32.0495 35.7818 32.1487C35.737 31.8557 35.737 31.513 35.7594 31.1929C35.7863 30.8413 35.4321 30.5032 35.0868 30.5167C34.6922 30.5437 34.4367 30.8233 34.4053 31.202Z" fill="#727272"/>
<path d="M33.9748 40.0338C33.7327 40.4441 33.5489 40.8949 33.4457 41.3637C33.365 41.7199 33.5534 42.0941 33.9165 42.1978C34.2932 42.3015 34.616 42.0716 34.7461 41.7244C34.7864 41.6117 34.9209 41.3683 34.9927 41.2736C34.6743 41.2736 34.3605 41.2736 34.0421 41.2736C33.9614 41.1744 33.939 41.0662 33.9704 40.94C33.9121 41.3006 34.0645 41.6658 34.4412 41.774C34.764 41.8642 35.2079 41.6658 35.2707 41.3006C35.3335 40.9264 35.2662 40.5973 34.9972 40.3178C34.764 40.0744 34.2708 40.0338 34.0466 40.3178C33.7865 40.6424 33.5982 40.9715 33.4502 41.3637C33.8807 41.4855 34.3156 41.6027 34.7461 41.7244C34.8313 41.3457 34.9434 41.0482 35.1407 40.7191C35.3245 40.4035 35.2124 39.9752 34.8985 39.7949C34.5802 39.6055 34.1632 39.7182 33.9748 40.0338Z" fill="#727272"/>
<path d="M38.8982 42.7343C38.6202 43.0995 38.4901 43.5503 38.4677 44.0056C38.4543 44.2716 38.6471 44.5286 38.8802 44.6233C39.1448 44.7315 39.4004 44.6683 39.6156 44.4835C39.9474 44.1995 40.2792 43.911 40.611 43.6269C40.2568 43.5818 39.907 43.5368 39.5528 43.4917C39.5259 43.4511 39.5394 43.3925 39.5439 43.3474C39.5483 43.3159 39.6201 43.2077 39.5483 43.3204C39.3555 43.6314 39.4811 44.0642 39.7905 44.2446C40.1133 44.4339 40.5169 44.3122 40.7097 44.0011C40.9384 43.6359 40.9339 43.1716 40.7142 42.8019C40.4765 42.4052 39.9878 42.3826 39.656 42.6667C39.3241 42.9507 38.9923 43.2392 38.6605 43.5232C39.0416 43.681 39.4273 43.8433 39.8084 44.0011C39.8174 43.7982 39.7725 44.0913 39.8174 43.8974C39.8353 43.8298 39.8532 43.7577 39.8757 43.69C39.8398 43.7847 39.9295 43.5954 39.9295 43.5909C39.9653 43.5277 40.0057 43.4691 40.0505 43.415C40.2702 43.122 40.0954 42.6576 39.8084 42.4908C39.4721 42.288 39.1224 42.4412 38.8982 42.7343Z" fill="#727272"/>
<path d="M41.3823 33.8799C41.2881 34.3938 41.2343 34.9123 41.2298 35.4398C41.2208 36.1025 42.158 36.373 42.4853 35.7824C42.6871 35.4127 42.9247 35.0926 43.2207 34.7951C42.9472 34.8311 42.6781 34.8672 42.4046 34.8988C42.3911 34.8898 42.3732 34.8762 42.3598 34.8672C42.3015 34.768 42.2432 34.6688 42.1849 34.5697C42.1714 34.5291 42.2163 34.4029 42.1714 34.5471C42.14 34.6373 42.1221 34.7816 42.1176 34.8672C42.1087 35.0836 42.1714 35.2955 42.297 35.4713C42.4405 35.6652 42.6781 35.7959 42.9247 35.7959C43.0593 35.7959 43.2162 35.7553 43.3328 35.6922C43.3552 35.6787 43.3731 35.6697 43.3955 35.6562C43.5032 35.5885 43.4718 35.584 43.3014 35.6426C43.1893 35.6111 43.0772 35.5795 42.9606 35.5525C42.7812 35.4623 42.7678 35.3586 42.7857 35.2279C42.7364 35.5885 42.8754 35.9537 43.2565 36.0619C43.5704 36.1476 44.0323 35.9537 44.0861 35.5885C44.1399 35.2008 44.1219 34.8086 43.826 34.5156C43.678 34.3713 43.4538 34.2856 43.2476 34.2901C43.1131 34.2947 42.9561 34.3397 42.8395 34.4029C42.8081 34.4209 42.6602 34.484 42.7454 34.466C42.8664 34.466 42.983 34.466 43.1041 34.466C43.0862 34.4615 43.0637 34.4525 43.0458 34.4479C43.1444 34.5065 43.2431 34.5652 43.3417 34.6238C43.3866 34.998 43.4269 35.0926 43.4673 34.9078C43.4852 34.8627 43.4942 34.8176 43.5032 34.768C43.5256 34.6643 43.5345 34.5561 43.5256 34.4479C43.5076 34.1504 43.3552 33.8664 43.0817 33.7356C42.8126 33.6004 42.4898 33.6184 42.2656 33.8393C41.8934 34.2135 41.5751 34.6373 41.3195 35.0971C41.7365 35.2098 42.1535 35.3226 42.575 35.4398C42.5795 35.0385 42.6109 34.6373 42.6826 34.2406C42.7454 33.8799 42.584 33.5102 42.2118 33.4065C41.88 33.3164 41.445 33.5192 41.3823 33.8799Z" fill="#727272"/>
<path d="M42.288 24.5703C42.0952 25.0346 42.0907 25.5621 42.2387 26.04C42.445 26.6982 43.3148 26.6667 43.5346 26.04C43.6467 25.7154 43.8484 25.4584 44.104 25.233C43.7229 25.0752 43.3373 24.9129 42.9561 24.7551C42.9696 24.9851 42.9875 25.215 43.001 25.4404C43.0279 25.8371 43.2879 26.0716 43.6736 26.1166C43.8888 26.1437 44.0861 26.0716 44.2654 25.9543C44.3417 25.9047 44.4089 25.8461 44.4672 25.7785C44.4896 25.747 44.5165 25.7199 44.539 25.6929C44.6197 25.6072 44.5524 25.6252 44.3327 25.747C44.2206 25.7154 44.1085 25.6838 43.9919 25.6568C43.956 25.6162 43.9157 25.5756 43.8798 25.5351C43.8484 25.4224 43.817 25.3097 43.7901 25.1924C43.7901 25.2105 43.7901 25.2285 43.7946 25.2465C43.826 25.1338 43.8574 25.0211 43.8843 24.9039C43.8753 24.9174 43.8664 24.9355 43.8574 24.949C43.4 25.6929 44.5659 26.3736 45.0187 25.6297C45.2878 25.1924 45.0636 24.6244 44.5928 24.4531C44.3461 24.3629 44.095 24.3809 43.8664 24.5072C43.7722 24.5568 43.6915 24.6289 43.6153 24.7055C43.5973 24.7236 43.5839 24.7461 43.5659 24.7641C43.4763 24.8543 43.5121 24.8543 43.6736 24.7641C43.8978 24.9896 44.122 25.215 44.3461 25.4404C44.3327 25.2105 44.3148 24.9805 44.3013 24.7551C44.261 24.1555 43.6018 23.8805 43.1534 24.2772C42.723 24.6605 42.427 25.1383 42.2387 25.6793C42.6692 25.6793 43.1041 25.6793 43.5346 25.6793C43.4494 25.4043 43.4763 25.1924 43.5839 24.931C43.7229 24.5928 43.4314 24.1871 43.1131 24.0969C42.7274 23.9887 42.427 24.2322 42.288 24.5703Z" fill="#727272"/>
<path d="M41.7275 12.7178C41.7634 13.0965 41.8037 13.4797 41.8396 13.8584C41.871 14.192 42.0683 14.4806 42.4225 14.5211C42.7454 14.5617 43.0772 14.3679 43.1624 14.0387C43.2341 13.7502 43.3328 13.4887 43.4762 13.2318C43.0906 13.2318 42.7005 13.2318 42.3149 13.2318C42.3822 13.358 42.4494 13.4842 42.5122 13.606C42.7588 14.0703 43.4135 14.0162 43.6735 13.606C43.696 13.5699 43.7273 13.5383 43.7273 13.5248C43.7991 13.4617 43.7498 13.4662 43.5883 13.5383C43.5166 13.5789 43.4449 13.5879 43.3731 13.5744C43.2924 13.4932 43.2117 13.4121 43.131 13.3309C43.1265 13.3129 43.122 13.2949 43.1175 13.2768C43.3776 14.1019 44.6779 13.7502 44.4134 12.9162C44.2789 12.4924 43.9112 12.2264 43.4628 12.2399C43.0278 12.2535 42.7229 12.5781 42.5077 12.9207C42.8933 12.9207 43.2834 12.9207 43.6691 12.9207C43.6018 12.7945 43.5345 12.6682 43.4718 12.5465C43.2386 12.1047 42.5481 12.1092 42.3104 12.5465C42.1176 12.9027 41.9652 13.2814 41.862 13.6781C42.3014 13.7367 42.7409 13.7998 43.1848 13.8584C43.1489 13.4797 43.1086 13.0965 43.0727 12.7178C43.0368 12.3526 42.7902 12.0416 42.4001 12.0416C42.0638 12.0416 41.6916 12.3526 41.7275 12.7178Z" fill="#727272"/>
<path d="M38.3959 5.15739C38.5663 5.59019 38.7771 5.95085 39.073 6.31152C39.4138 6.72628 40.055 6.45578 40.1985 6.01397C40.3016 5.68937 40.3465 5.33772 40.3151 4.9996C39.8981 5.11231 39.4811 5.22502 39.0596 5.34223C39.1896 5.5947 39.3735 5.82462 39.5932 6.00495C39.8757 6.23488 40.2702 6.27996 40.5438 6.00495C40.7814 5.76601 40.8262 5.27911 40.5438 5.04919C40.463 4.98607 40.3868 4.91394 40.324 4.8373C40.2568 4.75164 40.3644 4.90492 40.3061 4.81025C40.2747 4.76066 40.2478 4.71107 40.2209 4.66148C40.0819 4.39098 39.7366 4.26925 39.4586 4.34589C39.1941 4.41803 38.9385 4.70656 38.9654 4.9996C38.9923 5.28362 38.9833 5.39633 38.8982 5.6533C39.2748 5.55412 39.647 5.45494 40.0236 5.35576C39.9653 5.28813 39.907 5.20247 39.8398 5.08526C39.8084 5.03116 39.777 4.97255 39.7456 4.91845C39.7366 4.90492 39.6649 4.73361 39.6873 4.80123C39.5528 4.46311 39.2389 4.22417 38.8578 4.32786C38.5439 4.41352 38.2614 4.81476 38.3959 5.15739Z" fill="#727272"/>
<path d="M45.1893 4.63449C45.2431 4.91852 45.3507 5.19352 45.4987 5.44599C45.6511 5.70296 45.9695 5.83821 46.2564 5.75706C46.5613 5.6714 46.7228 5.40541 46.7497 5.10336C46.7811 4.78777 46.8124 4.46768 46.8438 4.1521C46.5075 4.34596 46.1712 4.53982 45.8305 4.73818C46.0367 4.89147 46.243 5.04926 46.4492 5.20254C46.7407 5.41894 47.2025 5.25213 47.3685 4.95909C47.5702 4.61646 47.4178 4.25129 47.1263 4.03489C46.9201 3.8816 46.7138 3.72381 46.5075 3.57053C46.3192 3.43077 46.0188 3.45782 45.8305 3.57053C45.6107 3.70127 45.5211 3.90865 45.4987 4.15661C45.4673 4.47219 45.4359 4.79228 45.4045 5.10786C45.8215 4.99516 46.2385 4.88245 46.66 4.76523C46.5524 4.5849 46.5255 4.49924 46.4851 4.27834C46.4179 3.91767 45.9874 3.7148 45.6556 3.80496C45.2879 3.90415 45.1265 4.27383 45.1893 4.63449Z" fill="#727272"/>
<path d="M48.1756 12.7494C48.2383 13.1236 48.328 13.4843 48.4491 13.8449C48.5881 14.2732 49.0365 14.4536 49.4356 14.2507C49.6822 14.1245 49.8391 13.89 49.9019 13.624C49.9333 13.5023 49.9378 13.3716 49.9467 13.2408C49.9467 13.1957 49.9512 13.1507 49.9557 13.1056C49.9467 13.2949 49.8212 13.4167 49.5746 13.4798C49.4625 13.4482 49.3504 13.4167 49.2338 13.3896C49.7629 13.6511 50.1754 13.8269 50.7807 13.6917C51.6237 13.5023 51.2695 12.1949 50.422 12.3888C50.2113 12.4384 50.0902 12.3121 49.9108 12.222C49.597 12.0687 49.2383 12.0912 48.9647 12.3076C48.7585 12.4699 48.6643 12.6953 48.6284 12.9523C48.615 13.0515 48.6105 13.1462 48.6015 13.2453C48.5926 13.331 48.5971 13.3355 48.606 13.2679C48.5612 13.4212 48.6105 13.358 48.7585 13.0875C49.0858 13.2228 49.4176 13.358 49.7449 13.4933C49.6284 13.1326 49.5387 12.772 49.4714 12.3978C49.4087 12.0371 48.9692 11.8342 48.6419 11.9244C48.2652 12.0191 48.1128 12.3888 48.1756 12.7494Z" fill="#727272"/>
<path d="M49.7403 22.5325C49.6955 22.8751 49.6461 23.2177 49.6013 23.5604C49.5609 23.8624 49.6282 24.16 49.9107 24.3223C50.1439 24.462 50.5474 24.4485 50.7268 24.2186C50.8254 24.0878 50.9241 23.9796 51.081 23.9255C50.7985 23.7091 50.5115 23.4927 50.229 23.2718C50.238 23.5423 50.2425 23.8128 50.2515 24.0833C50.2649 24.5342 50.6685 24.8407 51.1034 24.737C51.3186 24.6874 51.498 24.5792 51.6684 24.444L51.8343 24.3133C51.8208 24.2952 51.6056 24.3087 51.5563 24.2546C51.498 24.1555 51.4397 24.0563 51.3814 23.9571C51.3904 23.9796 51.3949 24.0022 51.4038 24.0247C51.6863 24.8407 52.9867 24.4891 52.6997 23.6641C52.5428 23.2177 52.184 22.9653 51.7087 22.9788C51.5159 22.9833 51.3142 23.0464 51.1483 23.1456C51.0137 23.2267 50.8882 23.3936 50.7357 23.4296C51.0182 23.646 51.3052 23.8624 51.5877 24.0833C51.5787 23.8128 51.5742 23.5423 51.5653 23.2718C51.5563 22.8571 51.1393 22.4739 50.7133 22.6181C50.3411 22.7489 50.0093 22.9472 49.7672 23.2628C50.1439 23.4837 50.516 23.7001 50.8927 23.921C50.9375 23.5784 50.9868 23.2358 51.0317 22.8931C51.081 22.5325 50.9465 22.1673 50.5609 22.0591C50.256 21.9734 49.7896 22.1673 49.7403 22.5325Z" fill="#727272"/>
<path d="M47.8078 33.731C47.7136 34.1142 47.6194 34.4974 47.5298 34.8806C47.4446 35.2323 47.6374 35.62 48.0006 35.7147C48.3234 35.8003 48.6328 35.7372 48.8974 35.5253C49.1081 35.354 49.1843 35.088 49.3771 34.9212C49.2785 34.9798 49.1798 35.0384 49.0812 35.097C49.1126 35.0835 49.144 35.07 49.1798 35.0565C49.0588 35.0565 48.9422 35.0565 48.8211 35.0565C48.8525 35.061 48.8839 35.07 48.9198 35.0745C48.7853 34.9708 48.6507 34.8671 48.5162 34.7634C48.5072 34.7093 48.5117 34.7229 48.5252 34.813C48.5566 34.8897 48.588 34.9663 48.6238 35.0429C48.7135 35.1917 48.8525 35.2954 49.005 35.363C49.1664 35.4352 49.3457 35.4442 49.5206 35.4081C49.5789 35.4036 49.6372 35.3856 49.691 35.363C49.9556 35.2774 49.9018 35.2503 49.5296 35.2864C49.4489 35.2052 49.3682 35.1241 49.2875 35.0429C49.2964 35.0565 49.3099 35.0745 49.3188 35.088C49.2875 34.9753 49.2561 34.8626 49.2292 34.7454C49.2292 34.7634 49.2292 34.786 49.2247 34.804C49.1843 35.6741 50.5295 35.6741 50.5699 34.804C50.5878 34.4343 50.3367 34.1232 49.9914 34.015C49.83 33.9655 49.6507 33.9609 49.4847 34.0015C49.4265 34.015 49.1978 34.0601 49.265 34.0691C49.3771 34.1007 49.4892 34.1323 49.6058 34.1593C49.5834 34.1458 49.5655 34.1278 49.543 34.1142C49.6237 34.1954 49.7045 34.2765 49.7852 34.3577C49.7538 34.2946 49.682 34.0556 49.5699 33.9384C49.3906 33.7581 49.0633 33.6769 48.8211 33.7445C48.6238 33.7986 48.4534 33.9159 48.3189 34.0646C48.2472 34.1458 48.1844 34.236 48.1306 34.3306C48.1127 34.3622 48.0992 34.3937 48.0813 34.4208C47.9557 34.5921 48.0499 34.5876 48.3638 34.4028C48.5207 34.6823 48.6776 34.9573 48.8346 35.2368C48.9287 34.8536 49.0229 34.4704 49.1126 34.0872C49.3099 33.2441 48.014 32.8835 47.8078 33.731Z" fill="#727272"/>
<path d="M46.382 41.8641C46.4807 41.9407 46.5793 42.0174 46.678 42.094C46.9649 42.3194 47.4313 42.1391 47.5972 41.8506C47.7989 41.5034 47.6465 41.1473 47.355 40.9264C47.2564 40.8497 47.1577 40.7731 47.0591 40.6964C46.7721 40.471 46.3058 40.6514 46.1399 40.9399C45.9381 41.287 46.095 41.6387 46.382 41.8641Z" fill="#727272"/>
</svg>
