<svg width="15.854492" height="15.902344" viewBox="0 0 15.8545 15.9023" fill="none" xmlns="http://www.w3.org/2000/svg" xmlns:xlink="http://www.w3.org/1999/xlink">
	<desc>
			Created with Pixso.
	</desc>
	<defs/>
	<path id="Stroke 1" d="M4.1 10.12L6.34 7.21L8.9 9.22L11.1 6.38" stroke="#727272" stroke-opacity="1.000000" stroke-width="1.500000" stroke-linejoin="round" stroke-linecap="round"/>
	<path id="Stroke 2" d="M15.1 2.19C15.1 2.98 14.45 3.63 13.66 3.63C12.86 3.63 12.22 2.98 12.22 2.19C12.22 1.39 12.86 0.75 13.66 0.75C14.45 0.75 15.1 1.39 15.1 2.19Z" stroke="#727272" stroke-opacity="1.000000" stroke-width="1.500000" stroke-linejoin="round"/>
	<path id="Stroke 4" d="M14.47 5.93C14.57 6.61 14.62 7.36 14.62 8.21C14.62 13.41 12.89 15.15 7.68 15.15C2.48 15.15 0.75 13.41 0.75 8.21C0.75 3.01 2.48 1.27 7.68 1.27C8.52 1.27 9.26 1.32 9.92 1.41" stroke="#727272" stroke-opacity="1.000000" stroke-width="1.500000" stroke-linejoin="round" stroke-linecap="round"/>
</svg>

