<svg width="15.000000" height="12.000000" viewBox="0 0 15 12" fill="none" xmlns="http://www.w3.org/2000/svg" xmlns:xlink="http://www.w3.org/1999/xlink">
	<desc>
			Created with Pixso.
	</desc>
	<defs/>
	<path id="Vector 13 (Stroke)" d="M7.5 1.09C5.8 1.09 3.48 1.23 2.01 1.34C1.53 1.37 1.15 1.76 1.15 2.23L1.15 2.76L7.03 5.85C7.32 6.01 7.67 6.01 7.96 5.85L13.84 2.76L13.84 2.23C13.84 1.76 13.46 1.37 12.98 1.34C11.51 1.23 9.19 1.09 7.5 1.09ZM13.84 4.01L8.52 6.81C7.88 7.14 7.11 7.14 6.47 6.81L1.15 4.01L1.15 9.76C1.15 10.23 1.53 10.62 2.01 10.65C3.48 10.76 5.8 10.9 7.5 10.9C9.19 10.9 11.51 10.76 12.98 10.65C13.46 10.62 13.84 10.23 13.84 9.76L13.84 4.01ZM1.93 0.25C3.4 0.14 5.75 0 7.5 0C9.24 0 11.59 0.14 13.06 0.25C14.16 0.33 15 1.2 15 2.23L15 9.76C15 10.79 14.16 11.66 13.06 11.74C11.59 11.85 9.24 12 7.5 12C5.75 12 3.4 11.85 1.93 11.74C0.83 11.66 0 10.79 0 9.76L0 2.23C0 1.2 0.83 0.33 1.93 0.25Z" fill="#3D3D3D" fill-opacity="1.000000" fill-rule="evenodd"/>
</svg>
