<svg width="12.501587" height="11.875793" viewBox="0 0 12.5016 11.8758" fill="none" xmlns="http://www.w3.org/2000/svg" xmlns:xlink="http://www.w3.org/1999/xlink">
	<desc>
			Created with Pixso.
	</desc>
	<defs/>
	<path id="Star" d="M9.94 7.38C9.78 7.54 9.71 7.77 9.74 7.99L10.3 11.06C10.35 11.32 10.24 11.59 10.02 11.74C9.81 11.9 9.52 11.91 9.29 11.79L6.52 10.35C6.42 10.29 6.32 10.27 6.21 10.26L6.04 10.26C5.98 10.27 5.92 10.29 5.87 10.32L3.1 11.77C2.96 11.84 2.81 11.86 2.66 11.84C2.29 11.77 2.04 11.42 2.1 11.04L2.66 7.97C2.69 7.75 2.62 7.52 2.46 7.36L0.2 5.17C0.01 4.99 -0.05 4.71 0.03 4.46C0.12 4.22 0.33 4.04 0.59 4L3.69 3.54C3.93 3.52 4.14 3.38 4.24 3.16L5.61 0.36C5.65 0.29 5.69 0.24 5.74 0.19L5.79 0.14C5.82 0.11 5.86 0.09 5.89 0.06L5.96 0.04L6.07 0L6.33 0C6.57 0.02 6.77 0.16 6.88 0.37L8.27 3.16C8.37 3.37 8.56 3.51 8.79 3.54L11.89 4C12.16 4.03 12.38 4.21 12.46 4.46C12.54 4.71 12.47 4.99 12.28 5.17L9.94 7.38Z" fill="#FFAC0C" fill-opacity="1.000000" fill-rule="nonzero"/>
</svg>
